<?xml version="1.0" encoding="UTF-8"?>
<svg width="32px" height="32px" viewBox="0 0 32 32" version="1.1" xmlns="http://www.w3.org/2000/svg" xmlns:xlink="http://www.w3.org/1999/xlink">
    <!-- Generator: Sketch 61.1 (89650) - https://sketch.com -->
    <title>FavIconJs</title>
    <desc>Created with Sketch.</desc>
    <g id="FavIconJs" stroke="none" strokeWidth="1" fill="none" fillRule="evenodd">
        <path d="M28.9006667,21.4488333 C28.1956667,23.1157222 27.1858889,24.6131667 25.8995,25.8995 C24.6131111,27.1858889 23.1157222,28.1956111 21.4488333,28.9006667 C19.7241111,29.6301667 17.8908889,30 16,30 C15.0325556,30 14.0803333,29.9025556 13.1498889,29.7102778 C17.4941667,28.8484444 20,26.1009444 20,22 L20,17 C20,15.3458333 21.3458333,14 23,14 C23.5522778,14 24,13.5523333 24,13 C24,12.4477222 23.5522778,12 23,12 C20.243,12 18,14.243 18,17 L18,22 C18,23.9996667 17.2579444,25.5278333 15.7943889,26.5420556 C14.4180556,27.4958889 12.4143889,28 10.0000556,28 L8.78288889,28 C7.81155556,27.4150556 6.91372222,26.7127222 6.10055556,25.8995 C6.06655556,25.8655556 6.03361111,25.8308333 6,25.7966111 L6,21 C6,18.5858333 4.28011111,16.5657778 2.00127778,16.1007778 C2.00105556,16.0671667 2,16.0336667 2,16 C2,14.1091667 2.36988889,12.2758889 3.09938889,10.5512222 C3.80444444,8.88433333 4.81411111,7.38688889 6.10055556,6.1005 C7.38688889,4.81416667 8.88433333,3.80438889 10.5512222,3.09938889 C12.2758889,2.36988889 14.1091667,2 16,2 C16.9674444,2 17.9196667,2.0975 18.8501111,2.28977778 C14.5059444,3.15155556 12,5.89905556 12,10 L12,15 C12,16.6542222 10.6542222,18 9,18 C8.44772222,18 8.00005556,18.4477222 8.00005556,19 C8.00005556,19.5523333 8.44777778,20 9.00005556,20 C11.7570556,20 14,17.757 14,15 L14,10 C14,8.00038889 14.7421111,6.47222222 16.2056667,5.458 C17.582,4.50416667 19.5856667,4 22,4 L23.2171111,4 C24.1885556,4.58505556 25.0863333,5.28733333 25.8995,6.1005 C25.9335,6.1345 25.9664444,6.16922222 26,6.20344444 L26,11 C26,13.4142222 27.7199444,15.4342222 29.9988333,15.8992222 C29.9990556,15.9328889 30,15.9663889 30,16 C30,17.8908889 29.6301667,19.7241667 28.9006667,21.4488333 M31,14 C30.5818333,14 30.1835,13.9137778 29.8215,13.7585556 C28.7515,13.2996667 28,12.2360556 28,11 L28,8.78288889 L28,5.41838889 C27.5558889,4.91511111 27.0806667,4.44005556 26.5772778,3.99611111 C26.3887222,3.82988889 26.1962778,3.66805556 26,3.51072222 C25.2961667,2.94644444 24.5437222,2.4405 23.7497778,2 C21.4536667,0.726277778 18.8118333,0 16,0 C7.16344444,0 0,7.16344444 0,16 C0,16.6773889 0.0425555556,17.3447778 0.124222222,18 L1.00005556,18 C1.41816667,18 1.8165,18.0862778 2.1785,18.2415556 C3.2485,18.7003889 4,19.764 4,21 L4,23.2171667 L4,26.5816667 C4.44411111,27.0849444 4.91933333,27.56 5.42272222,28.0039444 C5.61127778,28.1701667 5.80377778,28.332 6,28.4893333 C6.70383333,29.0536111 7.45627778,29.5596111 8.25022222,30 C10.5463333,31.2737778 13.1882222,32 16,32 C24.8366111,32 32,24.8365556 32,16 C32,15.3226667 31.9575,14.6552778 31.8758333,14 L31,14 Z" id="Logo" fill="#222222"></path>
    </g>
</svg>